<svg width="184" height="50" viewBox="0 0 184 50" fill="none" xmlns="http://www.w3.org/2000/svg">
<path d="M11.376 40.252C9.528 40.252 7.872 39.952 6.408 39.352C4.944 38.752 3.768 37.864 2.88 36.688C2.016 35.512 1.56 34.096 1.512 32.44H8.064C8.16 33.376 8.484 34.096 9.036 34.6C9.588 35.08 10.308 35.32 11.196 35.32C12.108 35.32 12.828 35.116 13.356 34.708C13.884 34.276 14.148 33.688 14.148 32.944C14.148 32.32 13.932 31.804 13.5 31.396C13.092 30.988 12.576 30.652 11.952 30.388C11.352 30.124 10.488 29.824 9.36 29.488C7.728 28.984 6.396 28.48 5.364 27.976C4.332 27.472 3.444 26.728 2.7 25.744C1.956 24.76 1.584 23.476 1.584 21.892C1.584 19.54 2.436 17.704 4.14 16.384C5.844 15.04 8.064 14.368 10.8 14.368C13.584 14.368 15.828 15.04 17.532 16.384C19.236 17.704 20.148 19.552 20.268 21.928H13.608C13.56 21.112 13.26 20.476 12.708 20.02C12.156 19.54 11.448 19.3 10.584 19.3C9.84 19.3 9.24 19.504 8.784 19.912C8.328 20.296 8.1 20.86 8.1 21.604C8.1 22.42 8.484 23.056 9.252 23.512C10.02 23.968 11.22 24.46 12.852 24.988C14.484 25.54 15.804 26.068 16.812 26.572C17.844 27.076 18.732 27.808 19.476 28.768C20.22 29.728 20.592 30.964 20.592 32.476C20.592 33.916 20.22 35.224 19.476 36.4C18.756 37.576 17.7 38.512 16.308 39.208C14.916 39.904 13.272 40.252 11.376 40.252ZM36.7284 19.696C39.0324 19.696 40.8804 20.464 42.2724 22C43.6644 23.512 44.3604 25.6 44.3604 28.264V40H38.2404V29.092C38.2404 27.748 37.8924 26.704 37.1964 25.96C36.5004 25.216 35.5644 24.844 34.3884 24.844C33.2124 24.844 32.2764 25.216 31.5804 25.96C30.8844 26.704 30.5364 27.748 30.5364 29.092V40H24.3804V13.36H30.5364V22.612C31.1604 21.724 32.0124 21.016 33.0924 20.488C34.1724 19.96 35.3844 19.696 36.7284 19.696ZM57.7823 40.288C55.8143 40.288 54.0383 39.868 52.4543 39.028C50.8943 38.188 49.6583 36.988 48.7463 35.428C47.8583 33.868 47.4143 32.044 47.4143 29.956C47.4143 27.892 47.8703 26.08 48.7822 24.52C49.6943 22.936 50.9423 21.724 52.5263 20.884C54.1103 20.044 55.8863 19.624 57.8543 19.624C59.8223 19.624 61.5983 20.044 63.1823 20.884C64.7663 21.724 66.0143 22.936 66.9263 24.52C67.8383 26.08 68.2943 27.892 68.2943 29.956C68.2943 32.02 67.8263 33.844 66.8903 35.428C65.9783 36.988 64.7183 38.188 63.1103 39.028C61.5263 39.868 59.7503 40.288 57.7823 40.288ZM57.7823 34.96C58.9583 34.96 59.9543 34.528 60.7703 33.664C61.6103 32.8 62.0303 31.564 62.0303 29.956C62.0303 28.348 61.6223 27.112 60.8063 26.248C60.0143 25.384 59.0303 24.952 57.8543 24.952C56.6543 24.952 55.6583 25.384 54.8663 26.248C54.0743 27.088 53.6783 28.324 53.6783 29.956C53.6783 31.564 54.0623 32.8 54.8303 33.664C55.6223 34.528 56.6063 34.96 57.7823 34.96ZM77.7161 23.26C78.4361 22.156 79.3361 21.292 80.4161 20.668C81.4961 20.02 82.6961 19.696 84.0161 19.696V26.212H82.3241C80.7881 26.212 79.6361 26.548 78.8681 27.22C78.1001 27.868 77.7161 29.02 77.7161 30.676V40H71.5601V19.912H77.7161V23.26ZM98.1546 34.78V40H95.0226C92.7906 40 91.0506 39.46 89.8026 38.38C88.5546 37.276 87.9306 35.488 87.9306 33.016V25.024H85.4826V19.912H87.9306V15.016H94.0866V19.912H98.1186V25.024H94.0866V33.088C94.0866 33.688 94.2306 34.12 94.5186 34.384C94.8066 34.648 95.2866 34.78 95.9586 34.78H98.1546ZM107.74 13.36V40H101.584V13.36H107.74ZM132.721 19.912L120.121 49.54H113.497L118.105 39.316L109.933 19.912H116.809L121.453 32.476L126.061 19.912H132.721Z" fill="url(#paint0_linear_3_32)"/>
<path d="M177.904 30.5349C182.318 25.6794 182.318 17.8161 177.904 12.9607C173.998 8.66378 167.842 8.10518 163.35 11.6372L163.225 11.7317C162.1 12.6169 161.842 14.3357 162.646 15.5646C163.451 16.7935 165.014 17.0857 166.131 16.2005L166.256 16.106C168.764 14.138 172.193 14.4474 174.365 16.845C176.826 19.5521 176.826 23.9349 174.365 26.6419L165.6 36.3013C163.139 39.0083 159.154 39.0083 156.693 36.3013C154.514 33.9036 154.232 30.131 156.021 27.381L156.107 27.2435C156.912 26.006 156.646 24.2872 155.529 23.4107C154.412 22.5341 152.842 22.8177 152.045 24.0466L151.959 24.1841C148.74 29.1169 149.248 35.8888 153.154 40.1857C157.568 45.0411 164.717 45.0411 169.131 40.1857L177.904 30.5349ZM137.311 28.5239C132.896 33.3794 132.896 41.2427 137.311 46.0982C141.217 50.395 147.373 50.9536 151.865 47.4216L151.99 47.3271C153.115 46.4419 153.373 44.7232 152.568 43.4942C151.764 42.2653 150.201 41.9732 149.084 42.8583L148.959 42.9528C146.451 44.9208 143.021 44.6114 140.85 42.2138C138.389 39.4982 138.389 35.1153 140.85 32.4083L149.615 22.7575C152.076 20.0505 156.061 20.0505 158.521 22.7575C160.701 25.1552 160.982 28.9278 159.193 31.6864L159.107 31.8239C158.303 33.0614 158.568 34.7802 159.686 35.6567C160.803 36.5333 162.373 36.2497 163.17 35.0208L163.256 34.8833C166.475 29.9419 165.967 23.17 162.061 18.8732C157.646 14.0177 150.498 14.0177 146.084 18.8732L137.311 28.5239Z" fill="url(#paint1_linear_3_32)"/>
<defs>
<linearGradient id="paint0_linear_3_32" x1="80.6816" y1="-11.7545" x2="-14.2935" y2="22.6337" gradientUnits="userSpaceOnUse">
<stop stop-color="#700994"/>
<stop offset="0.880208" stop-color="#3485FF"/>
</linearGradient>
<linearGradient id="paint1_linear_3_32" x1="112" y1="58" x2="195" y2="9" gradientUnits="userSpaceOnUse">
<stop stop-color="#700994"/>
<stop offset="1"/>
<stop offset="1" stop-color="#350446"/>
</linearGradient>
</defs>
</svg>
